# 3ds Max Wavefront OBJ Exporter v0.97b - (c)2007 guruware
# File Created: 10.08.2020 20:29:15

mtllib gearbox_bottom_geo.mtl

#
# object gearbox_bottom_geo
#

v  0.475627 0.498776 0.524113
v  0.475627 0.498776 0.540362
v  0.475627 0.998777 0.540362
v  0.475627 0.998777 0.524113
v  0.524372 0.998777 0.540362
v  0.524372 0.498776 0.540362
v  0.524372 0.498776 0.524113
v  0.524372 0.998777 0.524113
v  0.459379 0.498776 0.524113
v  0.459379 0.998777 0.524113
v  0.540620 0.498776 0.524113
v  0.540621 0.998777 0.524113
v  0.475627 0.498776 0.459120
v  0.475627 0.498776 0.475368
v  0.475627 0.998777 0.475368
v  0.475627 0.998777 0.459120
v  0.459379 0.498776 0.475368
v  0.459379 0.998777 0.475368
v  0.540620 0.498776 0.475368
v  0.540621 0.998777 0.475368
v  0.524372 0.498776 0.475368
v  0.524372 0.498776 0.459120
v  0.524372 0.998777 0.459120
v  0.524372 0.998777 0.475368
# 24 vertices

vn -1.000000 0.000000 0.000000
vn 1.000000 0.000000 0.000000
vn 0.000000 0.000000 1.000000
vn -1.000000 0.000000 0.000003
vn 0.000000 0.000000 -1.000000
vn -0.000002 0.000000 -1.000000
vn -0.000001 0.000000 -1.000000
vn 0.000000 -1.000000 0.000000
vn 0.000001 -1.000000 0.000000
vn -0.000007 1.000000 0.000000
vn 0.000001 1.000000 0.000000
vn 0.000000 1.000000 0.000000
# 12 vertex normals

vt 0.670792 0.602473 0.397523
vt 0.670792 0.670792 0.397523
vt 0.329208 0.670792 0.397524
vt 0.329208 0.602473 0.397524
vt 0.670792 0.670792 0.602473
vt 0.329208 0.670792 0.602472
vt 0.329208 0.602473 0.602472
vt 0.670792 0.602473 0.602473
vt 0.397523 0.329208 0.670792
vt 0.602472 0.329208 0.670792
vt 0.602473 0.670792 0.670792
vt 0.397524 0.670792 0.670792
vt 0.329208 0.329208 0.602473
vt 0.397523 0.329208 0.602473
vt 0.397524 0.670792 0.602473
vt 0.329208 0.670792 0.602473
vt 0.602472 0.329208 0.602473
vt 0.670788 0.329208 0.602473
vt 0.602473 0.670792 0.602473
vt 0.670792 0.329208 0.397523
vt 0.670792 0.397523 0.397523
vt 0.329208 0.397523 0.397524
vt 0.329208 0.329208 0.397524
vt 0.602477 0.329208 0.397523
vt 0.602476 0.670792 0.397523
vt 0.670792 0.397523 0.329208
vt 0.670792 0.602473 0.329208
vt 0.329208 0.602473 0.329208
vt 0.329208 0.397523 0.329208
vt 0.329208 0.602473 0.670788
vt 0.329208 0.397523 0.670788
vt 0.670792 0.397523 0.670792
vt 0.670792 0.602473 0.670792
vt 0.329208 0.397523 0.602472
vt 0.329208 0.329208 0.602472
vt 0.670792 0.329208 0.602473
vt 0.670792 0.397523 0.602473
vt 0.329212 0.329208 0.397523
vt 0.397528 0.329208 0.397523
vt 0.397527 0.670792 0.397523
vt 0.329208 0.670792 0.397523
vt 0.397528 0.329208 0.329208
vt 0.602477 0.329208 0.329208
vt 0.602476 0.670792 0.329208
vt 0.397527 0.670792 0.329208
vt 0.397523 0.397523 0.329208
vt 0.397523 0.602473 0.329208
vt 0.602472 0.670792 0.329208
vt 0.397523 0.670792 0.329208
vt 0.602472 0.602473 0.329208
vt 0.670788 0.397523 0.329208
vt 0.670788 0.602473 0.329208
vt 0.602472 0.397523 0.329208
vt 0.397523 0.329208 0.329208
vt 0.602472 0.329208 0.329208
vt 0.397527 0.602473 0.670792
vt 0.329208 0.602473 0.670792
vt 0.329208 0.397523 0.670792
vt 0.397527 0.397523 0.670792
vt 0.602476 0.329208 0.670792
vt 0.602476 0.397523 0.670792
vt 0.397527 0.329208 0.670792
vt 0.602476 0.602473 0.670792
vt 0.397527 0.670792 0.670792
vt 0.602476 0.670792 0.670792
# 65 texture coords

g gearbox_bottom_geo
usemtl default
s off
f 1/1/1 2/2/1 3/3/1 4/4/1 
f 5/5/2 6/6/2 7/7/2 8/8/2 
f 2/9/3 6/10/3 5/11/3 3/12/3 
f 9/13/3 1/14/3 4/15/3 10/16/3 
f 7/17/3 11/18/3 12/5/3 8/19/3 
f 13/20/4 14/21/4 15/22/4 16/23/4 
f 14/24/5 17/20/5 18/2/5 15/25/5 
f 17/26/1 9/27/1 10/28/1 18/29/1 
f 11/30/2 19/31/2 20/32/2 12/33/2 
f 21/34/2 22/35/2 23/36/2 24/37/2 
f 19/38/6 21/39/6 24/40/6 20/41/6 
f 22/42/7 13/43/7 16/44/7 23/45/7 
f 9/28/8 17/29/8 14/46/8 1/47/8 
f 6/48/9 2/49/9 1/47/9 7/50/9 
f 19/51/8 11/52/8 7/50/8 21/53/8 
f 21/53/9 14/46/9 13/54/9 22/55/9 
f 1/47/9 14/46/9 21/53/9 7/50/9 
f 8/56/10 12/57/10 20/58/10 24/59/10 
f 16/60/11 15/61/11 24/59/11 23/62/11 
f 10/33/12 4/63/12 15/61/12 18/32/12 
f 5/64/11 8/56/11 4/63/11 3/65/11 
f 24/59/11 15/61/11 4/63/11 8/56/11 
# 22 polygons

