# 3ds Max Wavefront OBJ Exporter v0.97b - (c)2007 guruware
# File Created: 10.08.2020 20:32:15

mtllib gearbox_front_geo.mtl

#
# object gearbox_front_geo
#

v  0.475627 0.474404 0.999741
v  0.459379 0.474404 0.999741
v  0.459379 0.474404 0.499740
v  0.475627 0.474404 0.499740
v  0.459379 0.523149 0.499740
v  0.459379 0.523149 0.999741
v  0.475627 0.523149 0.999741
v  0.475627 0.523149 0.499740
v  0.475627 0.458156 0.999741
v  0.475627 0.458156 0.499740
v  0.475627 0.539397 0.999741
v  0.475627 0.539397 0.499740
v  0.540621 0.474404 0.999741
v  0.524372 0.474404 0.999741
v  0.524372 0.474404 0.499740
v  0.540621 0.474404 0.499740
v  0.524372 0.458156 0.999741
v  0.524372 0.458156 0.499740
v  0.524372 0.539397 0.999741
v  0.524372 0.539397 0.499740
v  0.524372 0.523149 0.999741
v  0.540621 0.523149 0.999741
v  0.540621 0.523149 0.499740
v  0.524372 0.523149 0.499740
# 24 vertices

vn 0.000000 -1.000000 0.000000
vn 0.000000 1.000000 0.000000
vn -1.000000 0.000000 0.000000
vn -0.000003 -1.000000 0.000000
vn 1.000000 0.000000 0.000000
vn 0.000000 0.000000 1.000000
vn -0.000001 0.000000 -1.000000
vn 0.000000 0.000000 -1.000000
# 8 vertex normals

vt 0.432782 0.625631 0.432783
vt 0.387972 0.625631 0.432783
vt 0.387972 0.374369 0.432783
vt 0.432782 0.374369 0.432783
vt 0.612028 0.374369 0.567217
vt 0.612028 0.625631 0.567217
vt 0.567218 0.625631 0.567217
vt 0.567218 0.374369 0.567217
vt 0.567217 0.625631 0.387972
vt 0.432783 0.625631 0.387972
vt 0.432783 0.374369 0.387972
vt 0.567217 0.374369 0.387972
vt 0.612027 0.625631 0.432782
vt 0.567217 0.625631 0.432782
vt 0.567217 0.374369 0.432782
vt 0.612027 0.374369 0.432782
vt 0.432783 0.625631 0.432782
vt 0.387972 0.625631 0.432782
vt 0.387972 0.374369 0.432782
vt 0.432783 0.374369 0.432782
vt 0.612027 0.625631 0.432783
vt 0.567215 0.625631 0.432783
vt 0.567215 0.374369 0.432783
vt 0.612027 0.374369 0.432783
vt 0.432783 0.625631 0.567215
vt 0.387973 0.625631 0.567215
vt 0.387973 0.374369 0.567215
vt 0.432783 0.374369 0.567215
vt 0.567215 0.625631 0.387973
vt 0.432782 0.625631 0.387973
vt 0.432782 0.374369 0.387973
vt 0.567215 0.374369 0.387973
vt 0.567218 0.625631 0.612028
vt 0.432785 0.625631 0.612028
vt 0.432785 0.374369 0.612028
vt 0.567218 0.374369 0.612028
vt 0.432785 0.625631 0.567217
vt 0.387973 0.625631 0.567217
vt 0.387973 0.374369 0.567217
vt 0.432785 0.374369 0.567217
vt 0.612028 0.625631 0.567215
vt 0.567217 0.625631 0.567215
vt 0.567217 0.374369 0.567215
vt 0.612028 0.374369 0.567215
vt 0.567217 0.625631 0.612027
vt 0.432783 0.625631 0.612027
vt 0.432783 0.374369 0.612027
vt 0.567217 0.374369 0.612027
vt 0.432782 0.387973 0.625631
vt 0.567215 0.387973 0.625631
vt 0.567215 0.432783 0.625631
vt 0.432782 0.432783 0.625631
vt 0.387972 0.567217 0.625631
vt 0.387972 0.432783 0.625631
vt 0.432782 0.567217 0.625631
vt 0.567215 0.612028 0.625631
vt 0.432782 0.612028 0.625631
vt 0.567215 0.567217 0.625631
vt 0.612027 0.432783 0.625631
vt 0.612027 0.567217 0.625631
vt 0.567218 0.567217 0.374369
vt 0.567218 0.612028 0.374369
vt 0.432785 0.612028 0.374369
vt 0.432785 0.567217 0.374369
vt 0.387973 0.432783 0.374369
vt 0.432785 0.432783 0.374369
vt 0.387973 0.567217 0.374369
vt 0.567218 0.387973 0.374369
vt 0.567218 0.432783 0.374369
vt 0.432785 0.387973 0.374369
vt 0.612028 0.567217 0.374369
vt 0.612028 0.432783 0.374369
# 72 texture coords

g gearbox_front_geo
usemtl default
s off
f 1/1/1 2/2/1 3/3/1 4/4/1 
f 5/5/2 6/6/2 7/7/2 8/8/2 
f 2/9/3 6/10/3 5/11/3 3/12/3 
f 9/13/3 1/14/3 4/15/3 10/16/3 
f 7/17/3 11/18/3 12/19/3 8/20/3 
f 13/21/4 14/22/4 15/23/4 16/24/4 
f 14/25/5 17/26/5 18/27/5 15/28/5 
f 17/29/1 9/30/1 10/31/1 18/32/1 
f 11/33/2 19/34/2 20/35/2 12/36/2 
f 21/37/2 22/38/2 23/39/2 24/40/2 
f 19/41/5 21/42/5 24/43/5 20/44/5 
f 22/45/5 13/46/5 16/47/5 23/48/5 
f 9/49/6 17/50/6 14/51/6 1/52/6 
f 6/53/6 2/54/6 1/52/6 7/55/6 
f 19/56/6 11/57/6 7/55/6 21/58/6 
f 21/58/6 14/51/6 13/59/6 22/60/6 
f 1/52/6 14/51/6 21/58/6 7/55/6 
f 8/61/7 12/62/7 20/63/7 24/64/7 
f 16/65/8 15/66/8 24/64/8 23/67/8 
f 10/68/7 4/69/7 15/66/7 18/70/7 
f 5/71/8 8/61/8 4/69/8 3/72/8 
f 24/64/7 15/66/7 4/69/7 8/61/7 
# 22 polygons

