# 3ds Max Wavefront OBJ Exporter v0.97b - (c)2007 guruware
# File Created: 10.08.2020 20:36:04

mtllib gearbox_right_geo.mtl

#
# object gearbox_right_geo
#

v  0.500000 0.474404 0.524113
v  0.500000 0.474404 0.540362
v  0.000000 0.474404 0.540362
v  0.000000 0.474404 0.524113
v  0.000000 0.523149 0.540362
v  0.500000 0.523149 0.540362
v  0.500000 0.523149 0.524113
v  0.000000 0.523149 0.524113
v  0.500000 0.458156 0.524113
v  0.000000 0.458156 0.524113
v  0.500000 0.539397 0.524113
v  0.000000 0.539397 0.524113
v  0.500000 0.474404 0.459120
v  0.500000 0.474404 0.475368
v  0.000000 0.474404 0.475368
v  0.000000 0.474404 0.459120
v  0.500000 0.458156 0.475368
v  0.000000 0.458156 0.475368
v  0.500000 0.539397 0.475368
v  0.000000 0.539397 0.475368
v  0.500000 0.523149 0.475368
v  0.500000 0.523149 0.459120
v  0.000000 0.523149 0.459120
v  0.000000 0.523149 0.475368
# 24 vertices

vn 0.000000 -1.000000 0.000000
vn 0.000000 1.000000 0.000000
vn 0.000000 0.000000 1.000000
vn 0.000000 -1.000000 0.000002
vn 0.000000 0.000000 -1.000000
vn 1.000000 0.000000 0.000000
vn -1.000000 0.000000 0.000000
# 7 vertex normals

vt 0.736230 0.605098 0.358261
vt 0.736230 0.675167 0.358261
vt 0.263770 0.675167 0.358261
vt 0.263770 0.605098 0.358261
vt 0.736230 0.675167 0.641739
vt 0.263770 0.675167 0.641739
vt 0.263770 0.605098 0.641739
vt 0.736230 0.605098 0.641739
vt 0.736230 0.358261 0.675167
vt 0.736230 0.641739 0.675167
vt 0.263770 0.641739 0.675167
vt 0.263770 0.358261 0.675167
vt 0.736230 0.263770 0.605098
vt 0.736230 0.358261 0.605098
vt 0.263770 0.358261 0.605098
vt 0.263770 0.263771 0.605098
vt 0.736230 0.641739 0.605098
vt 0.736230 0.736229 0.605098
vt 0.263770 0.736230 0.605098
vt 0.263770 0.641739 0.605098
vt 0.736230 0.324833 0.358261
vt 0.736230 0.394898 0.358261
vt 0.263770 0.394898 0.358261
vt 0.263770 0.324833 0.358261
vt 0.263770 0.358261 0.394898
vt 0.263770 0.263770 0.394898
vt 0.736230 0.263771 0.394898
vt 0.736230 0.358261 0.394898
vt 0.736230 0.394898 0.263770
vt 0.736230 0.605098 0.263770
vt 0.263770 0.605098 0.263771
vt 0.263770 0.394898 0.263771
vt 0.263770 0.605098 0.736229
vt 0.263770 0.394898 0.736229
vt 0.736230 0.394898 0.736230
vt 0.736230 0.605098 0.736230
vt 0.263770 0.394898 0.641739
vt 0.263770 0.324833 0.641739
vt 0.736230 0.324833 0.641739
vt 0.736230 0.394898 0.641739
vt 0.263770 0.736229 0.394898
vt 0.263770 0.641739 0.394898
vt 0.736230 0.641739 0.394898
vt 0.736230 0.736230 0.394898
vt 0.263770 0.641739 0.324833
vt 0.263770 0.358261 0.324833
vt 0.736230 0.358261 0.324833
vt 0.736230 0.641739 0.324833
vt 0.263770 0.605098 0.736230
vt 0.263770 0.394898 0.736230
vt 0.358261 0.394898 0.736230
vt 0.358261 0.605098 0.736230
vt 0.641739 0.675167 0.736230
vt 0.358261 0.675167 0.736230
vt 0.641739 0.605098 0.736230
vt 0.736229 0.394898 0.736230
vt 0.736229 0.605098 0.736230
vt 0.641739 0.394898 0.736230
vt 0.358261 0.324833 0.736230
vt 0.641739 0.324833 0.736230
vt 0.358261 0.605098 0.263770
vt 0.263770 0.605098 0.263770
vt 0.263770 0.394898 0.263770
vt 0.358261 0.394898 0.263770
vt 0.641739 0.324833 0.263770
vt 0.641739 0.394898 0.263770
vt 0.358261 0.324833 0.263770
vt 0.736229 0.605098 0.263770
vt 0.641739 0.605098 0.263770
vt 0.736229 0.394898 0.263770
vt 0.358261 0.675167 0.263770
vt 0.641739 0.675167 0.263770
# 72 texture coords

g gearbox_right_geo
usemtl default
s off
f 1/1/1 2/2/1 3/3/1 4/4/1 
f 5/5/2 6/6/2 7/7/2 8/8/2 
f 2/9/3 6/10/3 5/11/3 3/12/3 
f 9/13/3 1/14/3 4/15/3 10/16/3 
f 7/17/3 11/18/3 12/19/3 8/20/3 
f 13/21/4 14/22/4 15/23/4 16/24/4 
f 14/25/5 17/26/5 18/27/5 15/28/5 
f 17/29/1 9/30/1 10/31/1 18/32/1 
f 11/33/2 19/34/2 20/35/2 12/36/2 
f 21/37/2 22/38/2 23/39/2 24/40/2 
f 19/41/5 21/42/5 24/43/5 20/44/5 
f 22/45/5 13/46/5 16/47/5 23/48/5 
f 9/49/6 17/50/6 14/51/6 1/52/6 
f 6/53/6 2/54/6 1/52/6 7/55/6 
f 19/56/6 11/57/6 7/55/6 21/58/6 
f 21/58/6 14/51/6 13/59/6 22/60/6 
f 1/52/6 14/51/6 21/58/6 7/55/6 
f 8/61/7 12/62/7 20/63/7 24/64/7 
f 16/65/7 15/66/7 24/64/7 23/67/7 
f 10/68/7 4/69/7 15/66/7 18/70/7 
f 5/71/7 8/61/7 4/69/7 3/72/7 
f 24/64/7 15/66/7 4/69/7 8/61/7 
# 22 polygons

