# Blender v2.83.4 OBJ File: ''
# www.blender.org
mtllib bellows_top_geo.mtl
o bellows_top_geo
v 0.044648 0.750003 0.694375
v 0.037500 0.737503 0.701522
v 0.587500 0.737503 0.701522
v 0.580352 0.750003 0.694375
v 0.217202 0.478677 0.331224
v 0.217202 0.478677 0.521820
v 0.407798 0.478677 0.521820
v 0.407798 0.478677 0.331224
v 0.037500 0.737503 0.151522
v 0.044648 0.750003 0.158669
v 0.580352 0.750003 0.158669
v 0.587500 0.737503 0.151522
v 0.201762 0.473454 0.537260
v 0.201762 0.473454 0.315784
v 0.423238 0.473454 0.315784
v 0.423238 0.473454 0.537260
v 0.037500 0.712503 0.151522
v 0.037500 0.725003 0.151522
v 0.587500 0.725003 0.151522
v 0.587500 0.712503 0.151522
v 0.037500 0.712503 0.701522
v 0.037500 0.725003 0.701522
v 0.587500 0.712503 0.701522
v 0.587500 0.725003 0.701522
v 0.051762 0.700003 0.165784
v 0.573238 0.700003 0.165784
v 0.051762 0.700003 0.687260
v 0.573238 0.700003 0.687260
v 0.217202 0.750003 0.521820
v 0.217202 0.750003 0.331224
v 0.407798 0.750003 0.521820
v 0.407798 0.750003 0.331224
v 0.201762 0.700003 0.315784
v 0.201762 0.700003 0.537260
v 0.423238 0.700003 0.315784
v 0.423238 0.700003 0.537260
vt 0.969048 0.194846
vt 0.979759 0.188348
vt 0.979759 0.688347
vt 0.969048 0.681849
vt 0.808112 0.905662
vt 0.808112 0.732393
vt 0.963228 0.732393
vt 0.963228 0.905662
vt 0.958337 0.188348
vt 0.969048 0.194846
vt 0.969048 0.681849
vt 0.958337 0.688347
vt 0.938096 0.487006
vt 0.938096 0.688347
vt 0.757849 0.688347
vt 0.757848 0.487006
vt 0.436905 0.500000
vt 0.447616 0.506497
vt 0.447616 0.993503
vt 0.436905 1.000000
vt 0.385712 0.506497
vt 0.396423 0.500000
vt 0.396423 1.000000
vt 0.385712 0.993503
vt 0.938096 0.188348
vt 0.948217 0.188348
vt 0.948217 0.688347
vt 0.938096 0.688347
vt 0.406543 0.500000
vt 0.416664 0.500000
vt 0.416664 1.000000
vt 0.406543 1.000000
vt 0.989879 0.188348
vt 1.000000 0.188348
vt 1.000000 0.688347
vt 0.989879 0.688347
vt 0.416664 0.500000
vt 0.426785 0.500000
vt 0.426785 1.000000
vt 0.416664 1.000000
vt 0.436009 0.487035
vt 0.447616 0.500000
vt 0.000000 0.500000
vt 0.011607 0.487035
vt 0.436009 0.012966
vt 0.447616 0.000000
vt 0.011607 0.012966
vt 0.000000 0.000000
vt 0.447616 0.487005
vt 0.447616 0.000000
vt 0.588049 0.156868
vt 0.588049 0.330137
vt 0.883598 0.000000
vt 0.743165 0.156868
vt 0.883598 0.487006
vt 0.743165 0.330137
vt 0.757848 0.732393
vt 0.602732 0.732393
vt 0.602732 0.487006
vt 0.757848 0.487006
vt 0.447616 0.487006
vt 0.602732 0.487006
vt 0.602732 0.732393
vt 0.447616 0.732393
vt 0.000000 0.500000
vt 0.155116 0.500000
vt 0.155116 0.745387
vt 0.000000 0.745388
vt 0.310232 0.500000
vt 0.310232 0.745388
vt 0.180248 0.950279
vt 0.000000 0.950279
vt 0.000000 0.745388
vt 0.180248 0.745388
vt 0.627864 0.937285
vt 0.447616 0.937285
vt 0.447616 0.732393
vt 0.627864 0.732393
vt 0.360495 0.950279
vt 0.180248 0.950279
vt 0.180248 0.745388
vt 0.360495 0.745388
vt 0.808111 0.937285
vt 0.627864 0.937285
vt 0.627864 0.732393
vt 0.808111 0.732393
vt 0.313932 0.350671
vt 0.313932 0.149329
vt 0.133684 0.350671
vt 0.133684 0.149329
vn 0.0000 0.4964 0.8681
vn 0.0000 1.0000 0.0000
vn 0.0000 0.4964 -0.8681
vn 0.0000 -1.0000 -0.0000
vn 0.8681 0.4964 0.0000
vn -0.8681 0.4964 0.0000
vn 0.0000 0.0000 -1.0000
vn -1.0000 0.0000 0.0000
vn 0.0000 0.0000 1.0000
vn 1.0000 0.0000 0.0000
vn 0.0000 -0.7520 -0.6591
vn -0.6591 -0.7520 -0.0000
vn 0.0000 -0.7520 0.6591
vn 0.6591 -0.7520 -0.0000
usemtl Default_OBJ
s off
f 1/1/1 2/2/1 3/3/1 4/4/1
f 5/5/2 6/6/2 7/7/2 8/8/2
f 9/9/3 10/10/3 11/11/3 12/12/3
f 13/13/4 14/14/4 15/15/4 16/16/4
f 12/17/5 11/18/5 4/19/5 3/20/5
f 10/21/6 9/22/6 2/23/6 1/24/6
f 17/25/7 18/26/7 19/27/7 20/28/7
f 18/29/8 17/30/8 21/31/8 22/32/8
f 22/33/9 21/34/9 23/35/9 24/36/9
f 20/37/10 19/38/10 24/39/10 23/40/10
f 25/41/11 17/42/11 20/43/11 26/44/11
f 17/42/12 25/41/12 27/45/12 21/46/12
f 21/46/13 27/45/13 28/47/13 23/48/13
f 26/44/14 20/43/14 23/48/14 28/47/14
f 18/26/7 9/9/7 12/12/7 19/27/7
f 2/23/8 9/22/8 18/29/8 22/32/8
f 2/2/9 22/33/9 24/36/9 3/3/9
f 19/38/10 12/17/10 3/20/10 24/39/10
f 10/49/2 1/50/2 29/51/2 30/52/2
f 1/50/2 4/53/2 31/54/2 29/51/2
f 4/53/2 11/55/2 32/56/2 31/54/2
f 11/55/2 10/49/2 30/52/2 32/56/2
f 30/57/10 29/58/10 6/59/10 5/60/10
f 29/61/7 31/62/7 7/63/7 6/64/7
f 31/65/8 32/66/8 8/67/8 7/68/8
f 32/66/9 30/69/9 5/70/9 8/67/9
f 34/71/8 33/72/8 14/73/8 13/74/8
f 33/75/7 35/76/7 15/77/7 14/78/7
f 35/79/10 36/80/10 16/81/10 15/82/10
f 36/83/9 34/84/9 13/85/9 16/86/9
s 1
f 27/45/4 25/41/4 33/87/4 34/88/4
f 25/41/4 26/44/4 35/89/4 33/87/4
f 26/44/4 28/47/4 36/90/4 35/89/4
f 28/47/4 27/45/4 34/88/4 36/90/4
